<?xml version="1.0" encoding="UTF-8"?>
<svg width="14px" height="15px" viewBox="0 0 14 15" version="1.1" xmlns="http://www.w3.org/2000/svg" xmlns:xlink="http://www.w3.org/1999/xlink">
    <!-- Generator: Sketch 46.2 (44496) - http://www.bohemiancoding.com/sketch -->
    <title>Shape</title>
    <desc>Created with Sketch.</desc>
    <defs></defs>
    <g id="Symbols" stroke="none" stroke-width="1" fill="none" fill-rule="evenodd">
        <g id="Input-on-focus" transform="translate(-1176.000000, -121.000000)" fill-rule="nonzero" fill="#BDD3DD">
            <path d="M1189.84585,121.335492 C1189.66451,121.154145 1189.37435,121.154145 1189.21114,121.335492 L1183.08161,127.446891 L1176.78886,121.13601 C1176.60751,120.954663 1176.31736,120.954663 1176.15415,121.13601 C1175.9728,121.317358 1175.9728,121.607513 1176.15415,121.770725 L1182.44689,128.081606 L1176.13601,134.392487 C1175.95466,134.573834 1175.95466,134.86399 1176.13601,135.027202 C1176.22668,135.117876 1176.33549,135.154145 1176.46244,135.154145 C1176.58938,135.154145 1176.69819,135.117876 1176.78886,135.027202 L1183.09974,128.716321 L1189.21114,134.82772 C1189.30181,134.918394 1189.41062,134.954663 1189.53756,134.954663 C1189.66451,134.954663 1189.77332,134.918394 1189.86399,134.82772 C1190.04534,134.646373 1190.04534,134.356218 1189.86399,134.193005 L1183.73446,128.081606 L1189.84585,121.970207 C1190.00907,121.78886 1190.00907,121.498705 1189.84585,121.335492 Z" id="Shape"></path>
        </g>
    </g>
</svg>